<?xml version="1.0" encoding="UTF-8" standalone="no"?><svg xmlns="http://www.w3.org/2000/svg" xmlns:xlink="http://www.w3.org/1999/xlink"><symbol id="calendar" width="24px" height="24px" viewBox="0 0 24 24" fill="none" xmlns="http://www.w3.org/2000/svg"><path d="M3 9H21M7 3V5M17 3V5M6 12H8M11 12H13M16 12H18M6 15H8M11 15H13M16 15H18M6 18H8M11 18H13M16 18H18M6.2 21H17.8C18.9201 21 19.4802 21 19.908 20.782C20.2843 20.5903 20.5903 20.2843 20.782 19.908C21 19.4802 21 18.9201 21 17.8V8.2C21 7.07989 21 6.51984 20.782 6.09202C20.5903 5.71569 20.2843 5.40973 19.908 5.21799C19.4802 5 18.9201 5 17.8 5H6.2C5.0799 5 4.51984 5 4.09202 5.21799C3.71569 5.40973 3.40973 5.71569 3.21799 6.09202C3 6.51984 3 7.07989 3 8.2V17.8C3 18.9201 3 19.4802 3.21799 19.908C3.40973 20.2843 3.71569 20.5903 4.09202 20.782C4.51984 21 5.07989 21 6.2 21Z" stroke="#000000" stroke-width="2" stroke-linecap="round"></path></symbol><symbol id="arrow-up" width="24px" height="24px" viewBox="0 0 24 24" xmlns="http://www.w3.org/2000/svg"><path d="M6.4569 9.73276C6.17123 10.0327 6.18281 10.5074 6.48276 10.7931C6.78271 11.0788 7.25744 11.0672 7.5431 10.7672L6.4569 9.73276ZM12.5431 5.51724C12.8288 5.21729 12.8172 4.74256 12.5172 4.4569C12.2173 4.17123 11.7426 4.18281 11.4569 4.48276L12.5431 5.51724ZM12.5431 4.48276C12.2574 4.18281 11.7827 4.17123 11.4828 4.4569C11.1828 4.74256 11.1712 5.21729 11.4569 5.51724L12.5431 4.48276ZM16.4569 10.7672C16.7426 11.0672 17.2173 11.0788 17.5172 10.7931C17.8172 10.5074 17.8288 10.0327 17.5431 9.73276L16.4569 10.7672ZM12.75 5C12.75 4.58579 12.4142 4.25 12 4.25C11.5858 4.25 11.25 4.58579 11.25 5H12.75ZM11.25 19C11.25 19.4142 11.5858 19.75 12 19.75C12.4142 19.75 12.75 19.4142 12.75 19H11.25ZM7.5431 10.7672L12.5431 5.51724L11.4569 4.48276L6.4569 9.73276L7.5431 10.7672ZM11.4569 5.51724L16.4569 10.7672L17.5431 9.73276L12.5431 4.48276L11.4569 5.51724ZM11.25 5V19H12.75V5H11.25Z"></path></symbol><symbol id="arrow-down" width="24px" height="24px" viewBox="0 0 24 24" xmlns="http://www.w3.org/2000/svg"><path d="M17.5431 14.2672C17.8288 13.9673 17.8172 13.4926 17.5172 13.2069C17.2173 12.9212 16.7426 12.9328 16.4569 13.2328L17.5431 14.2672ZM11.4569 18.4828C11.1712 18.7827 11.1828 19.2574 11.4828 19.5431C11.7827 19.8288 12.2574 19.8172 12.5431 19.5172L11.4569 18.4828ZM11.4569 19.5172C11.7426 19.8172 12.2173 19.8288 12.5172 19.5431C12.8172 19.2574 12.8288 18.7827 12.5431 18.4828L11.4569 19.5172ZM7.5431 13.2328C7.25744 12.9328 6.78271 12.9212 6.48276 13.2069C6.18281 13.4926 6.17123 13.9673 6.4569 14.2672L7.5431 13.2328ZM11.25 19C11.25 19.4142 11.5858 19.75 12 19.75C12.4142 19.75 12.75 19.4142 12.75 19H11.25ZM12.75 5C12.75 4.58579 12.4142 4.25 12 4.25C11.5858 4.25 11.25 4.58579 11.25 5H12.75ZM16.4569 13.2328L11.4569 18.4828L12.5431 19.5172L17.5431 14.2672L16.4569 13.2328ZM12.5431 18.4828L7.5431 13.2328L6.4569 14.2672L11.4569 19.5172L12.5431 18.4828ZM12.75 19V5H11.25V19H12.75Z"></path></symbol><symbol id="close" width="24" height="24" xmlns="http://www.w3.org/2000/svg"><path fill-rule="evenodd" clip-rule="evenodd" d="M10.9393 12L6.9696 15.9697L8.03026 17.0304L12 13.0607L15.9697 17.0304L17.0304 15.9697L13.0607 12L17.0303 8.03039L15.9696 6.96973L12 10.9393L8.03038 6.96973L6.96972 8.03039L10.9393 12Z"></path></symbol><symbol id="filter" fill="#000000" viewBox="-5.5 0 32 32" version="1.1" xmlns="http://www.w3.org/2000/svg"><g id="SVGRepo_bgCarrier" stroke-width="0"></g><g id="SVGRepo_tracerCarrier" stroke-linecap="round" stroke-linejoin="round"></g><g id="SVGRepo_iconCarrier"><title>filter</title><path d="M8.48 25.72c-0.16 0-0.32-0.040-0.44-0.12-0.24-0.16-0.4-0.44-0.4-0.72v-8.72l-7.48-8.48c-0.2-0.24-0.28-0.6-0.12-0.88s0.44-0.48 0.76-0.48h19.8c0.32 0 0.64 0.2 0.76 0.48 0.12 0.32 0.080 0.64-0.12 0.92l-7.8 8.8v6.32c0 0.32-0.2 0.6-0.48 0.76l-4.080 2c-0.080 0.080-0.24 0.12-0.4 0.12zM2.64 7.96l6.48 7.32c0.12 0.16 0.2 0.36 0.2 0.56v7.64l2.4-1.2v-6.080c0-0.2 0.080-0.4 0.2-0.56l6.8-7.68c0.040 0-16.080 0-16.080 0z"></path></g></symbol><symbol id="edit" width="24" height="24" xmlns="http://www.w3.org/2000/svg"><path fill-rule="evenodd" clip-rule="evenodd" d="M8.56078 20.2501L20.5608 8.25011L15.7501 3.43945L3.75012 15.4395V20.2501H8.56078ZM15.7501 5.56077L18.4395 8.25011L16.5001 10.1895L13.8108 7.50013L15.7501 5.56077ZM12.7501 8.56079L15.4395 11.2501L7.93946 18.7501H5.25012L5.25012 16.0608L12.7501 8.56079Z"></path></symbol><symbol id="categories" fill="#000000" viewBox="0 0 64 64" version="1.1" xmlns="http://www.w3.org/2000/svg" xmlns:xlink="http://www.w3.org/1999/xlink" xml:space="preserve" xmlns:serif="http://www.serif.com/" style="fill-rule:evenodd;clip-rule:evenodd;stroke-linejoin:round;stroke-miterlimit:2;"><rect id="Icons" x="-384" y="-320" width="1280" height="800" style="fill:none;"></rect><g id="Icons1" serif:id="Icons"><g id="Strike"></g><g id="H1"></g><g id="H2"></g><g id="H3"></g><g id="list-ul"></g><g id="hamburger-1"></g><g id="hamburger-2"></g><g id="list-ol"></g><g id="list-task"></g><g id="trash"></g><g id="vertical-menu"></g><g id="horizontal-menu"></g><g id="sidebar-2"></g><g id="Pen"></g><g id="Pen1" serif:id="Pen"></g><g id="clock"></g><g id="external-link"></g><g id="hr"></g><g id="info"></g><g id="warning"></g><g id="plus-circle"></g><g id="minus-circle"></g><g id="vue"></g><g id="cog"></g><g id="logo"></g><g id="radio-check"></g><g id="eye-slash"></g><g id="eye"></g><g id="toggle-off"></g><g id="shredder"></g><g><path d="M9.89,30.496c-1.14,1.122 -1.784,2.653 -1.791,4.252c-0.006,1.599 0.627,3.135 1.758,4.266c3.028,3.028 7.071,7.071 10.081,10.082c2.327,2.326 6.093,2.349 8.448,0.051c5.91,-5.768 16.235,-15.846 19.334,-18.871c0.578,-0.564 0.905,-1.338 0.905,-2.146c0,-4.228 0,-17.607 0,-17.607l-17.22,0c-0.788,0 -1.544,0.309 -2.105,0.862c-3.065,3.018 -13.447,13.239 -19.41,19.111Zm34.735,-15.973l0,11.945c0,0.811 -0.329,1.587 -0.91,2.152c-3.069,2.981 -13.093,12.718 -17.485,16.984c-1.161,1.127 -3.012,1.114 -4.157,-0.031c-2.387,-2.386 -6.296,-6.296 -8.709,-8.709c-0.562,-0.562 -0.876,-1.325 -0.872,-2.12c0.003,-0.795 0.324,-1.555 0.892,-2.112c4.455,-4.373 14.545,-14.278 17.573,-17.25c0.561,-0.551 1.316,-0.859 2.102,-0.859c3.202,0 11.566,0 11.566,0Zm-7.907,2.462c-1.751,0.015 -3.45,1.017 -4.266,2.553c-0.708,1.331 -0.75,2.987 -0.118,4.356c0.836,1.812 2.851,3.021 4.882,2.809c2.042,-0.212 3.899,-1.835 4.304,-3.896c0.296,-1.503 -0.162,-3.136 -1.213,-4.251c-0.899,-0.953 -2.18,-1.548 -3.495,-1.57c-0.031,-0.001 -0.062,-0.001 -0.094,-0.001Zm0.008,2.519c1.105,0.007 2.142,0.849 2.343,1.961c0.069,0.384 0.043,0.786 -0.09,1.154c-0.393,1.079 -1.62,1.811 -2.764,1.536c-1.139,-0.274 -1.997,-1.489 -1.802,-2.67c0.177,-1.069 1.146,-1.963 2.27,-1.981c0.014,0 0.029,0 0.043,0Z"></path><path d="M48.625,13.137l0,4.001l3.362,0l0,11.945c0,0.811 -0.328,1.587 -0.909,2.152c-3.069,2.981 -13.093,12.717 -17.485,16.983c-1.161,1.128 -3.013,1.114 -4.157,-0.03l-0.034,-0.034l-1.016,0.993c-0.663,0.646 -1.437,1.109 -2.259,1.389l1.174,1.174c2.327,2.327 6.093,2.35 8.447,0.051c5.91,-5.768 16.235,-15.845 19.335,-18.87c0.578,-0.565 0.904,-1.339 0.904,-2.147c0,-4.227 0,-17.607 0,-17.607l-7.362,0Z"></path></g><g id="spinner--loading--dots-" serif:id="spinner [loading, dots]"></g><g id="react"></g><g id="check-selected"></g><g id="turn-off"></g><g id="code-block"></g><g id="user"></g><g id="coffee-bean"></g><g id="coffee-beans"><g id="coffee-bean1" serif:id="coffee-bean"></g></g><g id="coffee-bean-filled"></g><g id="coffee-beans-filled"><g id="coffee-bean2" serif:id="coffee-bean"></g></g><g id="clipboard"></g><g id="clipboard-paste"></g><g id="clipboard-copy"></g><g id="Layer1"></g></g></symbol><symbol id="delete" width="24" height="24" xmlns="http://www.w3.org/2000/svg"><path fill-rule="evenodd" clip-rule="evenodd" d="M9 4.5V6H6V7.5H18V6H15V4.5H9ZM6.75 8.25H8.25V17.6893L8.56066 18H15.4393L15.75 17.6893V8.25H17.25V18.3107L16.0607 19.5H7.93934L6.75 18.3107V8.25Z"></path></symbol><symbol id="sort-down" viewBox="0 0 24 24" fill="none" xmlns="http://www.w3.org/2000/svg"><path d="M4 16L13 16" stroke="#1C274C" stroke-width="1.5" stroke-linecap="round"></path><path d="M6 11H13" stroke="#1C274C" stroke-width="1.5" stroke-linecap="round"></path><path d="M8 6L13 6" stroke="#1C274C" stroke-width="1.5" stroke-linecap="round"></path><path d="M17 4L17 20L20 16" stroke="#1C274C" stroke-width="1.5" stroke-linecap="round" stroke-linejoin="round"></path></symbol><symbol id="sort" width="24" height="24" xmlns="http://www.w3.org/2000/svg"><path d="M16 18L16 6M16 6L20 10.125M16 6L12 10.125" stroke="#1C274C" stroke-width="1.5" stroke-linecap="round" stroke-linejoin="round"></path><path d="M8 6L8 18M8 18L12 13.875M8 18L4 13.875" stroke="#1C274C" stroke-width="1.5" stroke-linecap="round" stroke-linejoin="round"></path></symbol><symbol id="sort-up" viewBox="0 0 24 24" fill="none" xmlns="http://www.w3.org/2000/svg"><path d="M4 8H13" stroke="#1C274C" stroke-width="1.5" stroke-linecap="round"></path><path d="M6 13H13" stroke="#1C274C" stroke-width="1.5" stroke-linecap="round"></path><path d="M8 18H13" stroke="#1C274C" stroke-width="1.5" stroke-linecap="round"></path><path d="M17 20V4L20 8" stroke="#1C274C" stroke-width="1.5" stroke-linecap="round" stroke-linejoin="round"></path></symbol><symbol id="transactions" width="24" height="24" xmlns="http://www.w3.org/2000/svg"><path d="M18 8L6 8M6 8L10.125 4M6 8L10.125 12" stroke="#1C274C" stroke-width="1.5" stroke-linecap="round" stroke-linejoin="round"></path><path d="M6 16L18 16M18 16L13.875 12M18 16L13.875 20" stroke="#1C274C" stroke-width="1.5" stroke-linecap="round" stroke-linejoin="round"></path></symbol></svg>